Coordinates
version=1
nRows=4
nColumns=107
inDegrees=yes

Units are S.I. units (second, meters, Newtons, ...)
If the header above contains a line with 'inDegrees', this indicates whether rotational values are in degrees (yes) or radians (no).

endheader
time	sternoclavicular_r2	sternoclavicular_r3	unrotscap_r3	unrotscap_r2	acromioclavicular_r2	acromioclavicular_r3	acromioclavicular_r1	unrothum_r1	unrothum_r3	unrothum_r2	elv_angle	shoulder_elv	shoulder1_r2	shoulder_rot	elbow_flexion	pro_sup	deviation	flexion	proximal_distal_r1	proximal_distal_r3	cmc_flexion	cmc_abduction	mp_flexion	ip_flexion	mcp2_flexion	mcp2_abduction	pm2_flexion	md2_flexion	mcp3_flexion	mcp3_abduction	pm3_flexion	md3_flexion	mcp4_flexion	mcp4_abduction	pm4_flexion	md4_flexion	mcp5_flexion	mcp5_abduction	pm5_flexion	md5_flexion	bicpt_tx	bicpt_ty	bicpt_tz	bicpt2_tx	bicpt2_ty	bicpt2_tz	ptpt_tx	ptpt_ty	ptpt_tz	FCUpt_tx	FCUpt_ty	FCUpt_tz	EDCpt_tx	EDCpt_ty	EDCpt_tz	APLpt_tx	APLpt_ty	APLpt_tz	FPLpt_tx	FPLpt_ty	FPLpt_tz	FPLpt2_tx	FPLpt2_ty	FPLpt2_tz	PEC1pt2_tx	PEC1pt2_ty	PEC1pt2_tz	PEC1pt3_tx	PEC1pt3_ty	PEC1pt3_tz	PEC2pt2_tx	PEC2pt2_ty	PEC2pt2_tz	PEC2pt3_tx	PEC2pt3_ty	PEC2pt3_tz	PEC3pt2_tx	PEC3pt2_ty	PEC3pt2_tz	PEC3pt3_tx	PEC3pt3_ty	PEC3pt3_tz	DELT2pt2a_tx	DELT2pt2a_ty	DELT2pt2a_tz	DELT2pt2_tx	DELT2pt2_ty	DELT2pt2_tz	LAT1pt2_tx	LAT1pt2_ty	LAT1pt2_tz	LAT1pt3_tx	LAT1pt3_ty	LAT1pt3_tz	LAT2pt2_tx	LAT2pt2_ty	LAT2pt2_tz	LAT2pt3_tx	LAT2pt3_ty	LAT2pt3_tz	LAT3pt2_tx	LAT3pt2_ty	LAT3pt2_tz	LAT3pt3_tx	LAT3pt3_ty	LAT3pt3_tz
      1.40000000	     -0.31184808	      0.13208413	     -0.13208413	      0.31184808	     -0.06314289	      0.51029866	      0.22937573	     -0.22937573	     -0.51029866	      0.06314289	    101.97030250	     73.83280595	     -1.77971752	    -37.95801800	     30.47095588	     62.45297191	      0.29288596	     -0.09444544	      0.32727416	     -0.04722272	     22.49417170	     -5.93579666	    -16.53531766	    -13.09597347	      9.84677994	     11.61882686	     31.01488519	      2.30096995	      6.04057039	      3.35235851	     22.35096646	     18.46957665	     12.87251204	     -1.57336520	     19.14938103	     22.03281323	     14.31773319	    -13.66763596	     17.76787715	      5.26625424	      0.00090788	     -0.03109244	     -0.00486254	      0.01603969	     -0.01847758	     -0.00471972	      0.00293543	     -0.06788386	     -0.00508092	      0.01011857	     -0.18295641	     -0.00035598	     -0.00749434	      0.00237140	     -0.00015138	      0.00008916	      0.00003566	      0.00017832	      0.00011413	      0.00034238	      0.00019259	      0.00000582	     -0.00028125	     -0.00033750	      0.00242008	      0.00849078	      0.00590663	     -0.00791652	      0.01911451	     -0.01813007	      0.00242008	      0.00849078	      0.00590663	      0.00053324	      0.01771989	     -0.00931115	      0.00385858	      0.00472161	      0.01574507	      0.00000000	      0.00728733	      0.00000000	     -0.00693209	     -0.03203526	     -0.00600583	      0.02198226	     -0.00103684	     -0.01172818	     -0.00086138	      0.01443843	     -0.00590663	      0.00237906	      0.02083728	     -0.01722767	     -0.00578357	      0.01251057	     -0.00529136	     -0.01205937	      0.02641576	     -0.02957417	     -0.02264208	      0.01398723	     -0.00709616	     -0.01501268	      0.03051759	     -0.03695745
      1.43333333	     -0.31402641	      0.13300677	     -0.13300677	      0.31402641	     -0.06358396	      0.51386320	      0.23097797	     -0.23097797	     -0.51386320	      0.06358396	    101.24886152	     74.34854340	     -1.76712600	    -34.86120293	     30.22677364	     59.34192413	      0.30438061	     -0.11340466	      0.33725528	     -0.05670233	     21.22529947	     -5.65038401	    -15.99182101	    -13.07509642	     11.45860665	     11.40168182	     31.26224166	      2.45229624	      9.33271625	      3.37220566	     21.59259317	     18.92243700	     15.04363947	     -2.26327574	     19.58093107	     22.99314911	     15.50616936	    -13.64165086	     19.43028839	      5.26515421	      0.00089981	     -0.03106445	     -0.00485803	      0.01618261	     -0.01841125	     -0.00514298	      0.00316530	     -0.06773522	     -0.00483031	      0.00978529	     -0.18303959	     -0.00038286	     -0.00712101	      0.00222478	     -0.00009381	      0.00010526	      0.00004210	      0.00021052	      0.00013473	      0.00040419	      0.00022736	      0.00000883	     -0.00028036	     -0.00033643	      0.00243698	      0.00855009	      0.00594789	     -0.00797182	      0.01924803	     -0.01825671	      0.00243698	      0.00855009	      0.00594789	      0.00053696	      0.01784367	     -0.00937619	      0.00387850	      0.00475460	      0.01579538	      0.00000000	      0.00739015	      0.00000000	     -0.00698051	     -0.03225903	     -0.00609124	      0.02087496	     -0.00092618	     -0.01000252	     -0.00086740	      0.01453928	     -0.00594789	      0.00239568	      0.02098283	     -0.01734801	     -0.00582397	      0.01259796	     -0.00532832	     -0.01214361	      0.02660028	     -0.02978075	     -0.02280024	      0.01408493	     -0.00714573	     -0.01511755	      0.03073076	     -0.03721561
      1.46666667	     -0.31388254	      0.13294583	     -0.13294583	      0.31388254	     -0.06355483	      0.51362777	      0.23087215	     -0.23087215	     -0.51362777	      0.06355483	    101.25360745	     74.31448101	     -1.76720883	    -34.85440827	     30.21827945	     59.34062781	      0.30430701	     -0.11331364	      0.33719145	     -0.05665682	     21.22384358	     -5.65174023	    -15.99277001	    -13.07538342	     11.45946985	     11.40137792	     31.26240461	      2.45246384	      9.34113541	      3.37319869	     21.59464048	     18.92291793	     15.04859316	     -2.26319119	     19.58283588	     22.99329191	     15.50807880	    -13.64077327	     19.43154401	      5.26531142	      0.00089953	     -0.03106348	     -0.00485788	      0.01618266	     -0.01840894	     -0.00514315	      0.00316540	     -0.06773516	     -0.00483021	      0.00978515	     -0.18303963	     -0.00038287	     -0.00712086	      0.00222472	     -0.00009379	      0.00010518	      0.00004207	      0.00021037	      0.00013463	      0.00040390	      0.00022719	      0.00000884	     -0.00028035	     -0.00033641	      0.00243587	      0.00854617	      0.00594516	     -0.00796817	      0.01923921	     -0.01824835	      0.00243587	      0.00854617	      0.00594516	      0.00053672	      0.01783549	     -0.00937189	      0.00387718	      0.00475242	      0.01579208	      0.00000000	      0.00738333	      0.00000000	     -0.00697731	     -0.03224425	     -0.00608558	      0.02087237	     -0.00092594	     -0.00999885	     -0.00086700	      0.01453262	     -0.00594516	      0.00239458	      0.02097322	     -0.01734006	     -0.00582131	      0.01259219	     -0.00532588	     -0.01213804	      0.02658809	     -0.02976710	     -0.02278979	      0.01407848	     -0.00714245	     -0.01511062	      0.03071668	     -0.03719856
      1.50000000	     -0.31665337	      0.13411942	     -0.13411942	      0.31665337	     -0.06411587	      0.51816188	      0.23291020	     -0.23291020	     -0.51816188	      0.06411587	    100.50995781	     74.97049995	     -1.75422969	    -31.25486073	     29.83836743	     55.56562214	      0.31902863	     -0.13098712	      0.34966004	     -0.06549356	     21.02289339	     -5.03815647	    -17.25708004	    -12.92016645	     13.04013333	     11.27819009	     30.81506544	      3.18041841	     11.88607843	      3.46222961	     21.83685130	     18.30143314	     17.17345302	     -2.74422142	     19.64413211	     21.50446673	     16.39370264	    -13.66969621	     20.34437698	      5.29095122	      0.00088696	     -0.03101993	     -0.00485086	      0.01632637	     -0.01830574	     -0.00563854	      0.00344433	     -0.06755480	     -0.00452611	      0.00938475	     -0.18313687	     -0.00040570	     -0.00666786	      0.00205082	     -0.00003097	      0.00011965	      0.00004786	      0.00023930	      0.00015315	      0.00045946	      0.00025844	      0.00000932	     -0.00028005	     -0.00033606	      0.00245737	      0.00862161	      0.00599765	     -0.00803851	      0.01940905	     -0.01840944	      0.00245737	      0.00862161	      0.00599765	      0.00054145	      0.01799294	     -0.00945462	      0.00390239	      0.00479437	      0.01585520	      0.00000000	      0.00751512	      0.00000000	     -0.00703890	     -0.03252889	     -0.00619504	      0.01942412	     -0.00080014	     -0.00811898	     -0.00087466	      0.01466091	     -0.00599765	      0.00241572	      0.02115836	     -0.01749313	     -0.00587269	      0.01270335	     -0.00537289	     -0.01224519	      0.02682280	     -0.03002988	     -0.02299097	      0.01420276	     -0.00720550	     -0.01524401	      0.03098783	     -0.03752693
